<?xml version="1.0" encoding="utf-8"?>
<!-- Generator: Adobe Illustrator 15.1.0, SVG Export Plug-In . SVG Version: 6.00 Build 0)  -->
<!DOCTYPE svg PUBLIC "-//W3C//DTD SVG 1.1//EN" "http://www.w3.org/Graphics/SVG/1.1/DTD/svg11.dtd">
<svg version="1.1" xmlns="http://www.w3.org/2000/svg" xmlns:xlink="http://www.w3.org/1999/xlink" x="0px" y="0px" width="147px"
	 height="147px" viewBox="0 0 147 147" enable-background="new 0 0 147 147" xml:space="preserve">
<g id="Layer_3" display="none">
</g>
<g id="Layer_2">
	<g>
		<g>
			<path fill="#1373D0" d="M0,106.8h3.897v25.095h13.198v3.654H0V106.8z"/>
			<path fill="#1373D0" d="M22.902,127.266c0,3.37,3.127,5.604,6.497,5.604c2.234,0,3.858-1.137,5.279-2.883l2.761,2.111
				c-2.03,2.64-4.832,3.938-8.527,3.938c-6.09,0-9.907-4.385-9.907-10.11c0-5.767,4.183-10.111,9.948-10.111
				c6.782,0,9.381,5.197,9.381,10.152v1.299H22.902z M34.436,124.342c-0.081-3.208-1.868-5.604-5.563-5.604
				c-3.614,0-5.97,3.045-5.97,5.604H34.436z"/>
			<path fill="#1373D0" d="M52.953,121.134c-0.854-1.056-2.112-1.908-3.939-1.908c-1.705,0-3.208,0.771-3.208,2.152
				c0,2.314,3.29,2.639,4.914,3.005c3.167,0.771,5.604,1.989,5.604,5.604c0,4.345-3.979,6.05-7.797,6.05
				c-3.167,0-5.522-0.812-7.432-3.41l2.762-2.274c1.178,1.178,2.559,2.274,4.67,2.274c1.868,0,3.898-0.772,3.898-2.438
				c0-2.192-3.046-2.599-4.629-2.964c-3.127-0.771-5.888-1.786-5.888-5.482c0-4.019,3.695-5.928,7.309-5.928
				c2.559,0,5.198,0.894,6.578,3.167L52.953,121.134z"/>
			<path fill="#1373D0" d="M70.982,121.134c-0.853-1.056-2.111-1.908-3.939-1.908c-1.705,0-3.208,0.771-3.208,2.152
				c0,2.314,3.29,2.639,4.914,3.005c3.167,0.771,5.604,1.989,5.604,5.604c0,4.345-3.98,6.05-7.797,6.05
				c-3.168,0-5.522-0.812-7.431-3.41l2.761-2.274c1.178,1.178,2.558,2.274,4.67,2.274c1.867,0,3.898-0.772,3.898-2.438
				c0-2.192-3.046-2.599-4.63-2.964c-3.127-0.771-5.888-1.786-5.888-5.482c0-4.019,3.695-5.928,7.309-5.928
				c2.559,0,5.198,0.894,6.579,3.167L70.982,121.134z"/>
			<path fill="#1373D0" d="M78.779,116.302h3.654v2.762h0.081c1.422-2.071,4.102-3.249,6.7-3.249c5.97,0,9.786,4.426,9.786,10.111
				c0,5.766-3.857,10.11-9.786,10.11c-2.761,0-5.4-1.259-6.7-3.248h-0.081V147h-3.654V116.302z M82.434,125.926
				c0,3.898,2.437,6.7,6.335,6.7s6.334-2.802,6.334-6.7s-2.436-6.7-6.334-6.7S82.434,122.027,82.434,125.926z"/>
			<path fill="#1373D0" d="M112.89,115.814c5.726,0,10.232,4.507,10.232,10.111c0,5.604-4.507,10.11-10.232,10.11
				s-10.233-4.507-10.233-10.11C102.656,120.321,107.164,115.814,112.89,115.814z M112.89,132.626c3.898,0,6.334-2.802,6.334-6.7
				s-2.436-6.7-6.334-6.7s-6.335,2.802-6.335,6.7S108.991,132.626,112.89,132.626z"/>
			<path fill="#1373D0" d="M147,135.549h-3.655v-2.761h-0.08c-1.422,2.07-4.103,3.248-6.701,3.248c-5.969,0-9.786-4.426-9.786-10.11
				c0-5.767,3.858-10.111,9.786-10.111c2.762,0,5.401,1.259,6.701,3.249h0.08v-14.213H147V135.549z M143.345,125.926
				c0-3.898-2.436-6.7-6.334-6.7s-6.335,2.802-6.335,6.7s2.437,6.7,6.335,6.7S143.345,129.824,143.345,125.926z"/>
		</g>
		<g>
			<g>
				<path fill="#1373D0" d="M124.916,51.427c0,0.76-0.017,1.51-0.053,2.261c-1.15,26.533-22.506,47.916-49.025,49.105
					c-0.772,0.033-1.554,0.053-2.335,0.053c-28.355,0-51.419-23.068-51.419-51.419C22.084,23.072,45.147,0,73.503,0
					C101.853,0,124.916,23.072,124.916,51.427z"/>
			</g>
			<path opacity="0.2" fill="#1373D0" d="M124.863,53.688c-1.15,26.533-22.506,47.916-49.025,49.105L41.741,68.695l-0.013-0.008
				l-1.204-1.204l-0.014-0.016c-0.803-1.073-1.282-2.447-1.282-3.944v-24.2c0-3.438,2.535-6.221,5.659-6.221h57.223
				c1.327,0,2.543,0.5,3.508,1.342l0.625,0.624L124.863,53.688z"/>
			<path fill="#FFFFFF" d="M106.243,35.067c-0.193-0.228-0.404-0.438-0.625-0.624c-0.965-0.842-2.181-1.342-3.508-1.342H44.888
				c-3.124,0-5.659,2.783-5.659,6.221v24.2c0,1.498,0.479,2.872,1.282,3.944l0.014,0.016c0.344,0.461,0.746,0.864,1.204,1.204
				l0.013,0.008c0.9,0.662,1.979,1.054,3.146,1.054h57.223c3.127,0,5.661-2.788,5.661-6.226v-24.2
				C107.771,37.671,107.191,36.179,106.243,35.067z M97.835,59.807H49.17v-16.77h48.665V59.807z M100.781,42.448
				c-1.502,0-2.723-1.221-2.723-2.723c0-1.505,1.221-2.722,2.723-2.722c1.501,0,2.723,1.216,2.723,2.722
				C103.504,41.228,102.282,42.448,100.781,42.448z"/>
		</g>
	</g>
</g>
</svg>
