<?xml version="1.0" encoding="utf-8"?>
<!-- Generator: Adobe Illustrator 15.1.0, SVG Export Plug-In . SVG Version: 6.00 Build 0)  -->
<!DOCTYPE svg PUBLIC "-//W3C//DTD SVG 1.1//EN" "http://www.w3.org/Graphics/SVG/1.1/DTD/svg11.dtd">
<svg version="1.1" xmlns="http://www.w3.org/2000/svg" xmlns:xlink="http://www.w3.org/1999/xlink" x="0px" y="0px" width="147px"
	 height="41px" viewBox="0 0 147 41" enable-background="new 0 0 147 41" xml:space="preserve">
<g id="Layer_3" display="none">
</g>
<g id="Layer_2">
	<g>
		<g>
			<path fill="#1373D0" d="M49.25,10.757h2.592v16.688h8.776v2.43H49.25V10.757z"/>
			<path fill="#1373D0" d="M64.48,24.367c0,2.24,2.079,3.726,4.32,3.726c1.485,0,2.564-0.757,3.511-1.917l1.835,1.404
				c-1.349,1.755-3.213,2.619-5.67,2.619c-4.05,0-6.589-2.917-6.589-6.724c0-3.834,2.781-6.724,6.616-6.724
				c4.51,0,6.237,3.457,6.237,6.75v0.865H64.48z M72.148,22.422c-0.054-2.133-1.241-3.727-3.699-3.727
				c-2.403,0-3.969,2.025-3.969,3.727H72.148z"/>
			<path fill="#1373D0" d="M84.462,20.289c-0.567-0.701-1.405-1.269-2.619-1.269c-1.134,0-2.134,0.513-2.134,1.43
				c0,1.54,2.188,1.757,3.269,1.998c2.104,0.514,3.726,1.324,3.726,3.728c0,2.89-2.646,4.023-5.186,4.023
				c-2.104,0-3.671-0.54-4.94-2.269l1.836-1.511c0.784,0.781,1.702,1.511,3.104,1.511c1.244,0,2.593-0.513,2.593-1.619
				c0-1.459-2.024-1.729-3.077-1.972c-2.079-0.513-3.915-1.188-3.915-3.646c0-2.673,2.456-3.942,4.859-3.942
				c1.701,0,3.456,0.594,4.375,2.106L84.462,20.289z"/>
			<path fill="#1373D0" d="M96.451,20.289c-0.567-0.701-1.404-1.269-2.619-1.269c-1.134,0-2.134,0.513-2.134,1.43
				c0,1.54,2.188,1.757,3.269,1.998c2.105,0.514,3.726,1.324,3.726,3.728c0,2.89-2.646,4.023-5.186,4.023
				c-2.105,0-3.672-0.54-4.94-2.269l1.836-1.511c0.783,0.781,1.702,1.511,3.104,1.511c1.243,0,2.593-0.513,2.593-1.619
				c0-1.459-2.024-1.729-3.078-1.972c-2.078-0.513-3.914-1.188-3.914-3.646c0-2.673,2.456-3.942,4.859-3.942
				c1.701,0,3.455,0.594,4.375,2.106L96.451,20.289z"/>
			<path fill="#1373D0" d="M101.635,17.076h2.431v1.836h0.054c0.946-1.377,2.728-2.16,4.456-2.16c3.969,0,6.508,2.943,6.508,6.724
				c0,3.834-2.565,6.724-6.508,6.724c-1.836,0-3.591-0.838-4.456-2.16h-0.054v9.451h-2.431V17.076z M104.065,23.476
				c0,2.593,1.62,4.455,4.213,4.455c2.592,0,4.212-1.862,4.212-4.455s-1.62-4.455-4.212-4.455
				C105.686,19.021,104.065,20.883,104.065,23.476z"/>
			<path fill="#1373D0" d="M124.317,16.752c3.808,0,6.806,2.997,6.806,6.724c0,3.726-2.998,6.724-6.806,6.724
				c-3.807,0-6.805-2.998-6.805-6.724C117.513,19.749,120.511,16.752,124.317,16.752z M124.317,27.931
				c2.593,0,4.213-1.862,4.213-4.455s-1.62-4.455-4.213-4.455c-2.592,0-4.212,1.862-4.212,4.455S121.726,27.931,124.317,27.931z"/>
			<path fill="#1373D0" d="M147,29.875h-2.431v-1.836h-0.054c-0.945,1.377-2.728,2.16-4.455,2.16c-3.97,0-6.508-2.943-6.508-6.724
				c0-3.834,2.564-6.724,6.508-6.724c1.835,0,3.591,0.837,4.455,2.16h0.054v-9.45H147V29.875z M144.569,23.476
				c0-2.593-1.619-4.455-4.213-4.455c-2.592,0-4.211,1.862-4.211,4.455s1.619,4.455,4.211,4.455
				C142.95,27.931,144.569,26.068,144.569,23.476z"/>
		</g>
		<g>
			<g>
				<path fill="#1373D0" d="M40.995,20.502c0,0.302-0.008,0.602-0.021,0.901C40.515,31.98,32.002,40.505,21.43,40.979
					C21.121,40.993,20.81,41,20.499,41C9.194,41,0,31.804,0,20.502C0,9.197,9.194,0,20.499,0C31.8,0,40.995,9.197,40.995,20.502z"/>
			</g>
			<path opacity="0.2" fill="#1373D0" d="M40.974,21.403C40.515,31.98,32.002,40.505,21.43,40.979L7.836,27.386l-0.005-0.003
				l-0.48-0.479l-0.005-0.007c-0.32-0.428-0.512-0.976-0.512-1.572v-9.647c0-1.371,1.011-2.48,2.256-2.48h22.813
				c0.528,0,1.014,0.199,1.398,0.535l0.249,0.248L40.974,21.403z"/>
			<path fill="#FFFFFF" d="M33.551,13.979c-0.077-0.091-0.161-0.174-0.249-0.248c-0.385-0.336-0.87-0.535-1.398-0.535H9.09
				c-1.245,0-2.256,1.109-2.256,2.48v9.647c0,0.597,0.191,1.145,0.512,1.572l0.005,0.007c0.137,0.184,0.299,0.345,0.48,0.479
				l0.005,0.003c0.359,0.265,0.789,0.42,1.254,0.42h22.813c1.247,0,2.257-1.111,2.257-2.481v-9.647
				C34.16,15.019,33.929,14.423,33.551,13.979z M30.198,23.843h-19.4v-6.686h19.4V23.843z M31.373,16.922
				c-0.599,0-1.086-0.486-1.086-1.085c0-0.601,0.487-1.085,1.086-1.085s1.086,0.484,1.086,1.085
				C32.459,16.436,31.972,16.922,31.373,16.922z"/>
		</g>
	</g>
</g>
</svg>
