<?xml version="1.0" encoding="utf-8"?>
<!-- Generator: Adobe Illustrator 15.1.0, SVG Export Plug-In . SVG Version: 6.00 Build 0)  -->
<!DOCTYPE svg PUBLIC "-//W3C//DTD SVG 1.1//EN" "http://www.w3.org/Graphics/SVG/1.1/DTD/svg11.dtd">
<svg version="1.1" xmlns="http://www.w3.org/2000/svg" xmlns:xlink="http://www.w3.org/1999/xlink" x="0px" y="0px" width="244px"
	 height="244px" viewBox="0 0 244 244" enable-background="new 0 0 244 244" xml:space="preserve">
<g id="Layer_1" display="none">
	
		<rect x="-131.965" y="-232.911" display="inline" fill="none" stroke="#000000" stroke-miterlimit="10" width="507.93" height="507.93"/>
</g>
<g id="Layer_3" display="none">
</g>
<g id="Layer_2">
	<g>
		<g>
			<path fill="#1373D0" d="M244,122.01c0,1.803-0.042,3.583-0.125,5.365c-2.729,62.948-53.402,113.678-116.327,116.5
				c-1.833,0.083-3.688,0.125-5.542,0.125C54.727,244,0,189.271,0,122.01C0,54.739,54.727,0,122.006,0
				C189.274,0,244,54.739,244,122.01z"/>
		</g>
		<path opacity="0.2" fill="#1373D0" d="M243.875,127.375c-2.729,62.948-53.402,113.678-116.327,116.5l-80.907-80.896l-0.03-0.021
			l-2.854-2.855l-0.031-0.041c-1.907-2.542-3.042-5.803-3.042-9.354V93.291c0-8.156,6.012-14.761,13.429-14.761h135.777
			c3.147,0,6.032,1.188,8.324,3.188l1.479,1.479L243.875,127.375z"/>
		<path fill="#FFFFFF" d="M199.692,83.198c-0.458-0.542-0.959-1.042-1.479-1.479c-2.292-2-5.177-3.188-8.324-3.188H54.111
			c-7.417,0-13.429,6.604-13.429,14.761v57.418c0,3.551,1.135,6.812,3.042,9.354l0.031,0.041c0.813,1.095,1.771,2.053,2.854,2.855
			l0.03,0.021c2.137,1.572,4.699,2.5,7.471,2.5h135.777c7.418,0,13.43-6.615,13.43-14.771V93.291
			C203.318,89.375,201.942,85.833,199.692,83.198z M179.742,141.896H64.27v-39.791h115.473V141.896z M186.732,100.709
			c-3.563,0-6.459-2.897-6.459-6.46c0-3.572,2.896-6.457,6.459-6.457s6.46,2.885,6.46,6.457
			C193.192,97.812,190.295,100.709,186.732,100.709z"/>
	</g>
</g>
</svg>
