<?xml version="1.0" standalone="no"?>
<!DOCTYPE svg PUBLIC "-//W3C//DTD SVG 20010904//EN"
 "http://www.w3.org/TR/2001/REC-SVG-20010904/DTD/svg10.dtd">
<svg version="1.0" xmlns="http://www.w3.org/2000/svg"
 width="245.000000pt" height="245.000000pt" viewBox="0 0 245.000000 245.000000"
 preserveAspectRatio="xMidYMid meet">
<metadata>
Created by potrace 1.11, written by Peter Selinger 2001-2013
</metadata>
<g transform="translate(0.000000,245.000000) scale(0.100000,-0.100000)"
fill="#000000" stroke="none">
<path d="M1208 2446 c-1 -2 -41 -6 -88 -10 -509 -37 -954 -410 -1080 -904 -32
-127 -33 -131 -35 -297 -3 -156 0 -183 39 -346 24 -97 137 -334 176 -369 3 -3
22 -28 42 -56 112 -154 328 -311 533 -387 154 -57 240 -72 425 -72 152 0 202
5 312 35 334 88 624 325 782 637 32 65 81 195 92 248 35 159 42 342 18 497
-70 461 -456 879 -908 983 -98 22 -117 25 -201 31 -44 3 -85 7 -92 9 -6 2 -13
2 -15 1z"/>
</g>
</svg>
